<?xml version="1.0" standalone="no"?><!DOCTYPE svg PUBLIC "-//W3C//DTD SVG 1.1//EN" "http://www.w3.org/Graphics/SVG/1.1/DTD/svg11.dtd"><svg t="1649901742907" class="icon" viewBox="0 0 1024 1024" version="1.1" xmlns="http://www.w3.org/2000/svg" p-id="11390" xmlns:xlink="http://www.w3.org/1999/xlink" width="200" height="200"><defs><style type="text/css"></style></defs><path d="M265.8 398.5s27.4-30.6 212.9-30.6S690 398.5 690 398.5s-94.1 113.2-228.6 119.6c-134.5 6.4-195.6-119.6-195.6-119.6z" fill="#0A308A" p-id="11391"></path><path d="M274.8 355.7l21.4 157.7 132.9-9.1-25.6-165.4-84.7 11.1z" fill="#52D6E6" p-id="11392"></path><path d="M329.1 437l7-10.9 9.1 5.5-10.2 9.1z" fill="#4AC3D1" p-id="11393"></path><path d="M356.3 461l32.6-26.8-29.9-89.5-33.9 4.4z" fill="#47BBC9" p-id="11394"></path><path d="M418.4 304.6l99.1 5.5-23.2 173.2-109.8-11.6z" fill="#52D6E6" p-id="11395"></path><path d="M481.2 437.3l-90.3 12.2 2-17.6 88.3-18.6z" fill="#47BBC9" p-id="11396"></path><path d="M321.8 295.5L357.3 454l43-7.8 70.9-12.9-28.9-163.4z" fill="#52D6E6" p-id="11397"></path><path d="M712.9 821c-1 22.3-66.7 35.8-186 30.3-81.1-3.8-148.2-11.9-173.8-40.3-12.3-13.6-24.4-6.4-24-13.5 1-22.3 82.3-32.3 201.6-26.8 119.3 5.6 183.2 28.1 182.2 50.3z" fill="#C4C6CC" p-id="11398"></path><path d="M644.7 789.3c-1.5 12.9-10 23.9-22.2 28.5-28.7 10.9-85.1 28.9-144.4 28.9-56.7 0-110.9-16.4-140.7-27.4-14.6-5.4-24.9-18.4-26.7-33.8l-44.9-386.9s24.4 50.2 209.1 50.2 215.3-50.2 215.3-50.2l-45.5 390.7z" fill="#1F53CC" p-id="11399"></path><path d="M508.7 817h-60.2c-2.2 0-3.9-1.7-3.9-3.9V541.9c0-15.8 12.8-28.6 28.6-28.6h10.9c15.8 0 28.6 12.8 28.6 28.6V813c-0.1 2.2-1.8 4-4 4z" fill="#1047C7" p-id="11400"></path><path d="M450.2 556.4c0-18.8 15.2-34 34-34 10.4 0 19.7 4.7 25.9 12-5.1-12.3-17.2-21-31.4-21-18.8 0-34 15.2-34 34v264.9c0 2.6 2.1 4.6 4.6 4.6h0.9V556.4z" fill="#0D3BA6" p-id="11401"></path><path d="M564.5 804.3l45.3-14.1c3.3-1 5.7-4 6-7.4l20.4-233.1c1.7-19.5-13.4-36.3-33-36.7-18.1-0.4-33.3 13.6-34.4 31.7l-15.3 251c-0.4 5.9 5.3 10.4 11 8.6z" fill="#1047C7" p-id="11402"></path><path d="M562.3 796.8l15.3-251c1.1-17.9 15.9-31.8 33.8-31.7-2.6-0.7-5.4-1.1-8.2-1.2-18.1-0.4-33.3 13.6-34.4 31.7l-15.3 251c-0.4 6 5.4 10.4 11.1 8.7l1-0.3c-2.2-1.7-3.5-4.3-3.3-7.2z" fill="#0D3BA6" p-id="11403"></path><path d="M687.3 423.1c-13.6 1-27.4 2-41.1 2.7-31.5 11.8-84.3 22.9-171.3 22.9-16.4 0-31.4-0.4-45.4-1.1h-0.2c74.7 45.3 166.7 63.7 247.1 69.2l10.9-93.7z" fill="#1A47AD" p-id="11404"></path><path d="M395.3 804.7l-49-14.7c-2.6-0.8-4.5-3.1-4.8-5.8l-22.9-234c-1.9-19.5 13.1-36.5 32.6-37.1 18.1-0.6 33.5 13.3 34.7 31.4l18 253.3c0.4 4.7-4.1 8.3-8.6 6.9z" fill="#1047C7" p-id="11405"></path><path d="M346.8 789.4l-22.9-234c-1.9-19.5 13.1-36.5 32.6-37.1 8.3-0.3 16.1 2.5 22.1 7.4-6.4-8-16.4-13-27.4-12.7-19.5 0.6-34.5 17.6-32.6 37.1l22.9 234c0.3 2.7 2.2 5 4.8 5.8l0.7 0.2c-0.1-0.2-0.1-0.4-0.2-0.7z" fill="#0D3BA6" p-id="11406"></path><path d="M395.3 804.7l-49-14.7c-2.6-0.8-4.5-3.1-4.8-5.8l-22.9-234c-1.9-19.5 13.1-36.5 32.6-37.1 18.1-0.6 33.5 13.3 34.7 31.4l18 253.3c0.4 4.7-4.1 8.3-8.6 6.9z" fill="#1047C7" p-id="11407"></path><path d="M346.8 789.4l-22.9-234c-1.9-19.5 13.1-36.5 32.6-37.1 8.3-0.3 16.1 2.5 22.1 7.4-6.4-8-16.4-13-27.4-12.7-19.5 0.6-34.5 17.6-32.6 37.1l22.9 234c0.3 2.7 2.2 5 4.8 5.8l0.7 0.2c-0.1-0.2-0.1-0.4-0.2-0.7z" fill="#0D3BA6" p-id="11408"></path><path d="M351.9 544.6l-15.8-118.5 130.6 97.1z" fill="#1842A1" p-id="11409"></path><path d="M351.3 513c-1.2 0-2.4 0.1-3.5 0.3l4.2 31.3 33.1-6.2c-3.9-15-17.7-25.9-33.8-25.4z" fill="#1842A1" p-id="11410"></path><path d="M356.6 518.3c8.3-0.3 16.1 2.5 22.1 7.4-6.4-8-16.4-13-27.4-12.7-1.2 0-2.4 0.1-3.5 0.3l0.8 6.3c2.5-0.7 5.2-1.2 8-1.3z" fill="#0C3491" p-id="11411"></path><path d="M296.6 506.4c1.5 16.7 2 30.3-0.7 30.5-2.7 0.2-7.5-12.9-9.1-29.6-1.5-16.7 0.8-30.5 3.5-30.8 2.7-0.2 4.8 13.3 6.3 29.9zM300.7 550.4c0.3 3.3-0.2 6.1-2.9 6.4s-6.5-2.1-6.8-5.5 3-6.4 5.7-6.6c2.6-0.3 3.7 2.3 4 5.7z" fill="#FFFFFF" p-id="11412"></path><path d="M338.523 203.721l413.162 264.178-15.084 23.59L323.44 227.311z" fill="#F0B200" p-id="11413"></path><path d="M477.95201 440.767483a245.2 96.7 32.595 1 0 104.184051-162.939386 245.2 96.7 32.595 1 0-104.184051 162.939386Z" fill="#F0B200" p-id="11414"></path><path d="M493.058762 417.294449a245.2 96.7 32.595 1 0 104.184051-162.939386 245.2 96.7 32.595 1 0-104.184051 162.939386Z" fill="#FECD44" p-id="11415"></path><path d="M510.529316 389.951086a226.3 89.3 32.595 1 0 96.211331-150.470395 226.3 89.3 32.595 1 0-96.211331 150.470395Z" fill="#FEDC54" p-id="11416"></path><path d="M575.9 205.9l-9.6 84.2c-0.7 6.3 6.1 10.6 11.5 7.3l72.4-44.1" fill="#E83155" p-id="11417"></path><path d="M575.9 205.9l-9.6 84.2c-0.2 2 0.3 3.7 1.2 5.1-0.5-11.8 10.8-44.8 35.8-74.2l-27.4-15.1z" fill="#FC5879" p-id="11418"></path><path d="M650.2 253.4c-4.8 7.4-25.2 2.8-45.8-10.3-4.2-2.7-8.1-5.6-11.6-8.5-13.4-11.1-20.7-22.8-16.9-28.7 4.8-7.4 25.2-2.8 45.8 10.3 20.4 13.1 33.2 29.7 28.5 37.2z" fill="#FC355D" p-id="11419"></path><path d="M635.6 226.7c-4.1-3.6-8.8-7.2-14-10.5-20.5-13.1-41-17.7-45.8-10.3-3.8 5.9 3.5 17.6 16.9 28.7 10-12.7 29.6-11 42.9-7.9z" fill="#FC7B95" p-id="11420"></path><path d="M567.5 295.2l104.4 128.1s7.6 3.2 15.4-0.2c7.8-3.4 9-9.2 9-9.2L567.5 295.2z" fill="#FECD0A" p-id="11421"></path><path d="M336.1 426.1s19.5 105.7 20.9 110.8l109.7-13.8-15.7-80-114.9-17z" fill="#34CEE0" p-id="11422"></path><path d="M469.5 190.5c-0.1 2.6-15-0.6-33.6-1.4-18.5-0.8-33.7 1.1-33.6-1.4 0.1-2.6 15.4-8.7 34-7.9 18.5 0.7 33.3 8.1 33.2 10.7z" fill="#FFFFFF" p-id="11423"></path></svg>