<?xml version="1.0" standalone="no"?><!DOCTYPE svg PUBLIC "-//W3C//DTD SVG 1.1//EN" "http://www.w3.org/Graphics/SVG/1.1/DTD/svg11.dtd"><svg t="1649901644540" class="icon" viewBox="0 0 1052 1024" version="1.1" xmlns="http://www.w3.org/2000/svg" p-id="4814" xmlns:xlink="http://www.w3.org/1999/xlink" width="205.46875" height="200"><defs><style type="text/css"></style></defs><path d="M29.729377 895.554722V257.36951c0-58.073208 47.514832-105.58804 105.58804-105.58804H710.905013c58.068932 0 105.579487 47.519108 105.579487 105.58804v177.046309" fill="#E3BD84" p-id="4815"></path><path d="M29.729377 895.554722V257.36951c0-58.073208 47.514832-105.58804 105.58804-105.58804H710.905013c58.068932 0 105.579487 47.519108 105.579487 105.58804v177.046309" fill="#E3BD84" p-id="4816"></path><path d="M706.662847 136.309536H131.079526c-58.073208 0-105.583763 47.514832-105.583763 105.58804v50.89317c0-58.073208 47.510555-105.58804 105.583763-105.58804H706.6714c58.068932 0 105.579487 64.479222 105.579486 190.405713V241.897576c0.004276-58.073208-47.510555-105.58804-105.588039-105.58804z" fill="#FFFFFF" opacity=".15" p-id="4817"></path><path d="M23.42172 887.108876h-4.276377V248.919388c0-59.398885 48.323067-107.726228 107.721951-107.726229h575.583321c59.407438 0 107.730505 48.327343 107.730505 107.726229v177.046309h-4.276378V248.919388c0-57.042601-46.411526-103.449851-103.454127-103.449851H126.867294c-57.042601 0-103.445574 46.40725-103.445574 103.449851v638.189488z" fill="#6E6E96" p-id="4818"></path><path d="M38.389042 887.108876h-34.211021V248.919388c0-67.652294 55.041256-122.69355 122.689273-122.69355h575.583321c67.65657 0 122.697826 55.041256 122.697826 122.69355v177.046309h-34.211021V248.919388c0-48.789192-39.693337-88.482529-88.486805-88.482529H126.867294c-48.789192 0-88.478253 39.693337-88.478252 88.482529v638.189488z" fill="#6E6E96" p-id="4819"></path><path d="M837.327565 204.526312l49.704337 131.969013s12.063661 28.647454-3.451037 62.785776l-187.553369 425.845958-461.164561-203.098001L495.221632 30.849788l303.190896 133.529891c0-0.004276 27.552701 11.661682 38.915037 40.146633z" fill="#FFFFFF" p-id="4820"></path><path d="M799.755311 155.908175l0.136844 0.064145L500.036834 23.913504a10.866276 10.866276 0 0 0-14.317313 5.55929l-257.583328 584.880166a10.861999 10.861999 0 0 0 5.567843 14.313036l456.041461 200.840074a10.861999 10.861999 0 0 0 14.30876-5.563567l185.547748-421.304446c0.166779-0.363492 0.316452-0.722708 0.478954-1.077647 15.728517-35.703477 4.511578-65.894703 3.168796-69.268764-0.034211-0.064146-49.097091-130.493663-49.097092-130.493663-12.833409-32.209676-43.122992-45.346708-44.397352-45.889808z" fill="#FFFFFF" p-id="4821"></path><path d="M694.111679 847.531002a27.783625 27.783625 0 0 1-11.259703-2.37339L226.806239 644.321814c-14.090664-6.183642-20.530889-22.716118-14.338694-36.840993L470.067979 22.579274a27.980339 27.980339 0 0 1 36.84527-14.325865l299.547422 131.926249c3.887227 1.659235 38.440358 17.293671 53.574459 55.297839 0.115462 0.303623 47.574701 126.456762 49.15696 130.639059 2.711223 6.876415 14.522578 41.510797-3.468142 82.345928l-15.886743-6.367527 15.660095 6.876415-0.363492 0.816789-185.432286 421.056415a27.984615 27.984615 0 0 1-25.589843 16.686426zM246.310797 615.528964l444.602151 195.802501 183.028962-415.586928 15.903848 6.341868-15.664371-6.876416 0.350663-0.782577c12.991635-29.498453 3.241494-54.763292 2.818133-55.823833l0.051316-0.017106c-1.868777-4.785267-9.852774-26.008929-49.26387-130.76735-10.023829-25.157929-34.839648-36.071245-35.091954-36.178155l0.517441-1.210215-0.564482 1.197386-294.142081-129.544307-252.545756 573.445132zM796.419736 162.942816l-4.160915 8.338936 4.160915-8.338936z" fill="#6E6E96" p-id="4822"></path><path d="M824.019478 172.615982s14.218956 19.192383-16.220301 88.298645c-28.070143 63.765067-24.114493 54.759015-24.114493 54.759015l77.462304 34.116941s42.058174 18.858825 24.238508 64.530538c0 0 10.015276-27.950404 9.437966-39.847287-2.031279-41.228557-70.803984-201.857852-70.803984-201.857852z" fill="#FFFFFF" p-id="4823"></path><path d="M901.323556 420.538974l-32.038621-11.98241c0.038487-0.111186 0.829617-2.330626 1.924369-5.700411 6.833651-24.738844-13.124203-35.596567-17.208143-37.525214l-72.082621-31.743551-6.059627 0.816788-3.929991-5.217181-10.806406-4.759608 6.919179-15.664371c0.880934-1.988516 5.311261-12.050832 24.10594-54.737633 20.693391-46.971732 18.572308-66.707214 17.434792-71.650707l-1.282914-3.023399 29.468519-16.91735c1.150346 1.552325 2.76254 4.250719 4.122428 8.497162 20.714773 48.998735 68.161183 164.914226 70.025683 202.700299 0.149673 3.134585 0.611522 12.611038-7.954062 39.154513a94.798739 94.798739 0 0 1-2.638525 7.753073z m-95.089533-113.623353l61.408783 27.048088c-8.078077-25.341814-20.244372-58.222881-33.78766-92.395414a350.628753 350.628753 0 0 1-10.408703 26.244129c-8.129394 18.482504-13.577499 30.854064-17.21242 39.103197z m-22.818751 8.612624l-2.210887-16.369973 2.210887 16.369973z" fill="#6E6E96" p-id="4824"></path><path d="M894.340231 329.811347c-0.042764-0.072698-49.097091-130.497939-49.097091-130.497939a78.026786 78.026786 0 0 0-8.28762-15.454829c13.440655 35.694924 42.353244 112.597022 42.387455 112.648339 1.013501 2.552997 7.658992 20.45819 4.045453 44.48288-32.162636-13.782765-68.533228-12.003792-101.918908-23.742449 46.552647 31.328742 67.695058 90.770391 50.482638 148.954785l-141.796129 321.959917a10.836341 10.836341 0 0 1-14.308759 5.546462L234.704709 599.441231l-5.469487 12.444259a10.84917 10.84917 0 0 0 5.563567 14.287378l456.041461 200.84435a10.883381 10.883381 0 0 0 14.321588-5.550738l185.552025-421.312998c0.149673-0.363492 0.307899-0.718431 0.461849-1.073371 15.715688-35.707753 4.507302-65.898979 3.164519-69.268764z" fill="#6E6E96" opacity=".15" p-id="4825"></path><path d="M829.484688 376.778802H305.619878c-58.077484 0-119.430674 45.457894-136.335194 101.012315L17.879535 822.578338c-14.351523 47.164169 7.765902 87.037113 50.30303 97.99747-3.044781-13.620263-2.450364-28.968182 2.488851-45.201312l151.40515-344.791497c16.908797-55.554421 78.261987-101.016592 136.330918-101.016592h471.077204V376.778802z" fill="#966E6E" opacity=".15" p-id="4826"></path><path d="M190.405713 535.423858c16.900244-55.558698 78.25771-101.012315 136.326642-101.012315h636.03847c58.073208 0 89.979261 44.876307 70.906618 99.729402l-173.937383 347.365877c-19.081197 54.848819-82.209083 99.725126-140.273739 99.725126H113.841448c-58.068932 0-91.753958-45.46217-74.840884-101.00804l151.405149-344.80005z" fill="#FFE494" p-id="4827"></path><path d="M177.679213 569.356915c16.904521-55.558698 78.25771-101.016592 136.330918-101.016592h636.034195c34.728463 0 60.083105 16.057798 70.791155 40.685456l0.111185-0.337833c19.072644-54.853096-12.829133-99.725126-70.906617-99.725126H314.014408c-58.068932 0-119.426397 45.457894-136.330918 101.012315L26.27834 854.766633c-6.333315 20.81313-5.57212 40.210779 0.923698 56.341275l150.477175-341.750993z" fill="#FFFFFF" opacity=".34" p-id="4828"></path><path d="M855.527828 822.420112c-19.081197 54.857372-82.209083 99.733679-140.278015 99.733679H109.616387c-41.155858 0-70.034236-22.857238-77.359671-55.926466l-1.706274 5.589225C13.641645 927.375248 47.318118 972.833142 105.395603 972.833142h605.629149c58.068932 0 121.196818-44.880583 140.278015-99.725126l173.933106-347.365877c6.102391-17.550254 6.966219-34.0699 3.44676-48.434252l-173.154805 345.112225z" fill="#966E6E" opacity=".15" p-id="4829"></path><path d="M706.803967 989.887336H101.170541c-33.646539 0-61.806486-12.995912-79.292593-36.601516-17.481832-23.597052-21.719722-54.309996-11.922541-86.494014l0.701326-1.894435 151.015999-343.906287c19.414754-61.921948 87.528897-112.130897 152.384439-112.130897h636.042748c33.77483 0 61.58839 12.957424 78.317579 36.49033 16.729189 23.52863 19.833839 54.057689 8.73664 85.963742l-0.859552 2.039833-173.449876 346.412244c-21.766762 60.814366-91.501652 110.121-156.040743 110.121zM42.408837 877.68374c-6.213577 21.193727-3.750383 40.779537 6.957666 55.23797 10.870552 14.672252 29.267528 22.750329 51.804038 22.750329H706.799691c50.64514 0 107.486751-40.407492 124.12186-88.238776l0.859552-2.039832 173.411388-346.33527c6.961943-20.761813 5.319814-39.864392-4.648422-53.89091-10.135015-14.253167-28.048761-22.100319-50.439874-22.10032H314.065724c-50.362899 0-105.301522 40.706838-119.965221 88.888785l-0.701326 1.894435L42.408837 877.68374z" fill="#6E6E96" p-id="4830"></path></svg>