<?xml version="1.0" standalone="no"?><!DOCTYPE svg PUBLIC "-//W3C//DTD SVG 1.1//EN" "http://www.w3.org/Graphics/SVG/1.1/DTD/svg11.dtd"><svg t="1633795632438" class="icon" viewBox="0 0 1024 1024" version="1.1" xmlns="http://www.w3.org/2000/svg" p-id="26841" xmlns:xlink="http://www.w3.org/1999/xlink" width="200" height="200"><defs><style type="text/css"></style></defs><path d="M826.514286 109.714286L351.085714 190.171429H329.142857c-14.628571 0-21.942857 7.314286-21.942857 21.942857v468.114285c-14.628571-7.314286-36.571429-14.628571-58.514286-14.628571-65.828571 0-124.342857 58.514286-124.342857 124.342857 0 65.828571 58.514286 124.342857 124.342857 124.342857 65.828571 0 124.342857-58.514286 124.342857-124.342857v-14.628571-373.028572l438.857143-80.457143v234.057143c-21.942857-7.314286-36.571429-14.628571-65.828571-14.628571-65.828571 0-124.342857 58.514286-124.342857 124.342857 0 65.828571 58.514286 124.342857 124.342857 124.342857 65.828571 0 124.342857-58.514286 124.342857-124.342857v-14.628571-519.314286c0-7.314286-7.314286-21.942857-14.628571-21.942857h-29.257143z m0 0" p-id="26842" fill="#cdcdcd"></path></svg>