<?xml version="1.0" standalone="no"?><!DOCTYPE svg PUBLIC "-//W3C//DTD SVG 1.1//EN" "http://www.w3.org/Graphics/SVG/1.1/DTD/svg11.dtd"><svg t="1633703276722" class="icon" viewBox="0 0 1024 1024" version="1.1" xmlns="http://www.w3.org/2000/svg" p-id="3073" xmlns:xlink="http://www.w3.org/1999/xlink" width="200" height="200"><defs><style type="text/css"></style></defs><path d="M443.733333 14.933333c-234.666667 0-426.666667 192-426.666666 426.666667s192 426.666667 426.666666 426.666667 426.666667-192 426.666667-426.666667c0-236.8-192-426.666667-426.666667-426.666667z m-157.866666 202.666667c-10.666667 4.266667-19.2 8.533333-27.733334 14.933333-8.533333 6.4-17.066667 12.8-25.6 21.333334-6.4 6.4-14.933333 14.933333-19.2 23.466666-6.4 8.533333-10.666667 19.2-14.933333 27.733334-4.266667 8.533333-12.8 12.8-21.333333 8.533333-8.533333-4.266667-12.8-12.8-8.533334-21.333333 4.266667-10.666667 10.666667-23.466667 19.2-34.133334 6.4-10.666667 14.933333-21.333333 23.466667-29.866666 8.533333-8.533333 19.2-17.066667 29.866667-23.466667 10.666667-6.4 21.333333-12.8 34.133333-19.2 8.533333-4.266667 19.2 0 21.333333 8.533333 2.133333 10.666667-2.133333 19.2-10.666666 23.466667z m441.6 377.6c-10.666667 23.466667-23.466667 44.8-42.666667 64-19.2 19.2-40.533333 34.133333-64 42.666667-23.466667 10.666667-49.066667 14.933333-76.8 14.933333-8.533333 0-17.066667-8.533333-17.066667-17.066667s6.4-17.066667 17.066667-17.066666c21.333333 0 42.666667-4.266667 64-12.8 19.2-8.533333 38.4-19.2 53.333333-36.266667 17.066667-14.933333 27.733333-34.133333 36.266667-53.333333 8.533333-19.2 12.8-42.666667 12.8-64 0-8.533333 8.533333-17.066667 17.066667-17.066667s17.066667 8.533333 17.066666 17.066667c-2.133333 27.733333-8.533333 55.466667-17.066666 78.933333z m260.266666 302.933333l-119.466666-123.733333c-12.8-12.8-27.733333-19.2-44.8-19.2s-32 6.4-44.8 19.2c-25.6 25.6-25.6 66.133333 0 91.733333l119.466666 123.733334c12.8 12.8 27.733333 19.2 44.8 19.2s32-6.4 44.8-19.2c25.6-25.6 25.6-66.133333 0-91.733334z" fill="#666767" p-id="3074"></path></svg>