<?xml version="1.0" standalone="no"?><!DOCTYPE svg PUBLIC "-//W3C//DTD SVG 1.1//EN" "http://www.w3.org/Graphics/SVG/1.1/DTD/svg11.dtd"><svg t="1633796401858" class="icon" viewBox="0 0 1024 1024" version="1.1" xmlns="http://www.w3.org/2000/svg" p-id="38528" xmlns:xlink="http://www.w3.org/1999/xlink" width="200" height="200"><defs><style type="text/css"></style></defs><path d="M512 122.821a387.773 387.773 0 1 1-151.468 30.559A386.689 386.689 0 0 1 512 122.821m0-60C263.925 62.821 62.821 263.925 62.821 512S263.925 961.179 512 961.179 961.179 760.075 961.179 512 760.075 62.821 512 62.821z" p-id="38529" fill="#cdcdcd"></path><path d="M439.15 345.377a34.474 34.474 0 0 0-34.484 34.484v264.725a34.362 34.362 0 0 0 51.648 29.819l229.259-132.363c22.954-13.253 22.954-46.385 0-59.637l-229.26-132.363a34.16 34.16 0 0 0-17.163-4.665z" p-id="38530" fill="#cdcdcd"></path></svg>